<?xml version="1.0" encoding="utf-8"?>
<!-- Generator: Adobe Illustrator 15.0.0, SVG Export Plug-In . SVG Version: 6.00 Build 0)  -->
<!DOCTYPE svg PUBLIC "-//W3C//DTD SVG 1.1//EN" "http://www.w3.org/Graphics/SVG/1.1/DTD/svg11.dtd">
<svg version="1.1"
	 id="svg5973" xmlns:dc="http://purl.org/dc/elements/1.1/" xmlns:inkscape="http://www.inkscape.org/namespaces/inkscape" xmlns:svg="http://www.w3.org/2000/svg" sodipodi:docname="juliarun-small.svg" inkscape:version="0.92.0 r" xmlns:rdf="http://www.w3.org/1999/02/22-rdf-syntax-ns#" xmlns:cc="http://creativecommons.org/ns#" xmlns:sodipodi="http://sodipodi.sourceforge.net/DTD/sodipodi-0.dtd"
	 xmlns="http://www.w3.org/2000/svg" xmlns:xlink="http://www.w3.org/1999/xlink" x="0px" y="0px" width="205px" height="82px"
	 viewBox="0 0 205 82" enable-background="new 0 0 205 82" xml:space="preserve">
<sodipodi:namedview  id="namedview16" bordercolor="#666666" pagecolor="#ffffff" inkscape:window-width="1004" gridtolerance="10" inkscape:window-height="494" inkscape:pageshadow="2" objecttolerance="10" inkscape:window-y="49" inkscape:cy="40.052786" borderopacity="1" guidetolerance="10" inkscape:window-x="0" inkscape:cx="70.163168" inkscape:pageopacity="0" inkscape:current-layer="svg5973" showgrid="false" inkscape:window-maximized="0" inkscape:zoom="2.9461122">
	</sodipodi:namedview>
<g>
	<g>
		<g>
			<path fill="#4D63E8" d="M90.99,73.526l1.152-0.16l5.442-14.059h1.809l5.346,14.059l1.143,0.16v1.348h-4.471v-1.348l1.178-0.203
				l-1.027-2.866h-6.23l-1.059,2.866l1.176,0.203v1.348H90.99V73.526z M95.98,68.692h4.941l-2.416-6.679H98.44L95.98,68.692z"/>
			<path fill="#4D63E8" d="M118.959,64.087h-1.488l-0.395-2.202c-0.344-0.335-0.764-0.609-1.262-0.822
				c-0.498-0.214-1.094-0.322-1.785-0.322c-1.617,0-2.861,0.588-3.732,1.76c-0.869,1.172-1.301,2.66-1.301,4.463v0.246
				c0,1.802,0.424,3.294,1.275,4.473c0.85,1.18,2.035,1.77,3.545,1.77c0.705,0,1.346-0.111,1.924-0.332
				c0.576-0.22,1.023-0.491,1.336-0.812l0.395-2.201h1.488v2.771c-0.451,0.575-1.125,1.091-2.021,1.543
				c-0.9,0.453-1.939,0.679-3.121,0.679c-2.025,0-3.686-0.749-4.98-2.246c-1.299-1.497-1.949-3.377-1.949-5.643v-0.227
				c0-2.279,0.639-4.168,1.914-5.658c1.277-1.493,2.947-2.24,5.016-2.24c1.182,0,2.221,0.229,3.121,0.689
				c0.896,0.46,1.57,0.974,2.021,1.546V64.087z"/>
			<path fill="#4D63E8" d="M121.383,73.526l1.156-0.16l5.443-14.059h1.805l5.346,14.059l1.143,0.16v1.348h-4.465v-1.348l1.174-0.203
				l-1.025-2.866h-6.234l-1.057,2.866l1.178,0.203v1.348h-4.463V73.526z M126.377,68.692h4.941l-2.42-6.679h-0.062L126.377,68.692z"
				/>
			<path fill="#4D63E8" d="M144.662,59.308c2.031,0,3.662,0.626,4.902,1.878c1.236,1.25,1.854,2.867,1.854,4.845v2.13
				c0,1.988-0.617,3.604-1.854,4.849c-1.24,1.243-2.871,1.865-4.902,1.865h-6.523v-1.348l1.744-0.299V60.964l-1.744-0.298v-1.358
				h1.744H144.662z M141.988,60.964v12.264h2.674c1.438,0,2.574-0.474,3.406-1.423c0.828-0.947,1.244-2.163,1.244-3.645v-2.149
				c0-1.467-0.416-2.676-1.244-3.624c-0.832-0.948-1.969-1.423-3.406-1.423H141.988z"/>
			<path fill="#4D63E8" d="M153.855,74.874v-1.348l1.744-0.299V60.964l-1.744-0.298v-1.358h11.951v3.742h-1.805l-0.172-2.086h-6.125
				V66h5.955v1.656h-5.955v5.571h6.254l0.172-2.086h1.795v3.732H153.855z"/>
			<path fill="#4D63E8" d="M183.578,62.407l-0.053-0.01l-5.035,12.477h-1.4l-5.035-12.467l-0.053,0.013l0.213,6.296v4.512
				l1.742,0.299v1.348h-5.59v-1.348l1.742-0.299V60.964l-1.742-0.298v-1.358h1.742h2.695l4.959,12.646h0.062l4.949-12.646h4.449
				v1.358l-1.742,0.298v12.264l1.742,0.299v1.348h-5.592v-1.348l1.742-0.299v-4.512L183.578,62.407z"/>
			<path fill="#4D63E8" d="M194.154,60.666l-1.682,0.203l3.262,6.351l3.262-6.351l-1.668-0.203v-1.358h5.344v1.358l-1.314,0.203
				l-4.615,8.531v3.827l1.738,0.299v1.348h-5.576v-1.348l1.74-0.299v-3.989l-4.531-8.369l-1.303-0.203v-1.358h5.344V60.666z"/>
		</g>
		<g>
			<path fill="#231F20" d="M104.242,37.984v1.357l-1.744,0.298v9.602c0,1.389-0.439,2.49-1.318,3.306
				c-0.881,0.818-2.021,1.226-3.428,1.226c-1.494,0-2.686-0.379-3.57-1.137c-0.883-0.763-1.305-1.864-1.271-3.312l0.021-0.063h2.019
				c0,0.961,0.248,1.682,0.734,2.155s1.178,0.709,2.068,0.709c0.777,0,1.412-0.262,1.9-0.783c0.496-0.525,0.74-1.226,0.74-2.101
				V39.64l-1.742-0.298v-1.357h3.848H104.242z"/>
			<path fill="#231F20" d="M114.646,51.839c-0.365,0.619-0.832,1.098-1.406,1.434c-0.572,0.334-1.234,0.501-1.984,0.501
				c-1.254,0-2.23-0.403-2.939-1.21c-0.703-0.803-1.057-2.059-1.057-3.762V43.64l-1.328-0.299v-1.36h1.328h2.107v6.844
				c0,1.233,0.18,2.081,0.547,2.545c0.359,0.464,0.926,0.693,1.695,0.693c0.748,0,1.367-0.149,1.854-0.451
				c0.49-0.305,0.859-0.734,1.109-1.29V43.64l-1.553-0.299v-1.36h1.553h2.104v9.922l1.328,0.3v1.348h-3.217L114.646,51.839z"/>
			<path fill="#231F20" d="M119.93,38.23v-1.357h3.848v15.029l1.744,0.3v1.348h-5.592v-1.348l1.744-0.3V38.529L119.93,38.23z"/>
			<path fill="#231F20" d="M127.66,52.202l1.742-0.3V43.64l-1.742-0.299v-1.36h3.846v9.922l1.746,0.3v1.348h-5.592V52.202z
				 M131.506,39.021h-2.104v-2.148h2.104V39.021z"/>
			<path fill="#231F20" d="M142.951,53.55c-0.066-0.314-0.117-0.596-0.15-0.843c-0.037-0.251-0.061-0.503-0.074-0.75
				c-0.406,0.52-0.916,0.954-1.527,1.3c-0.607,0.346-1.258,0.517-1.947,0.517c-1.207,0-2.121-0.293-2.75-0.882
				c-0.627-0.587-0.939-1.414-0.939-2.484c0-1.098,0.443-1.945,1.33-2.539c0.887-0.596,2.105-0.894,3.652-0.894h2.168v-1.348
				c0-0.676-0.213-1.214-0.641-1.609c-0.424-0.394-1.023-0.592-1.785-0.592c-0.527,0-0.992,0.068-1.396,0.204
				c-0.398,0.134-0.725,0.317-0.977,0.556l-0.223,1.218h-1.627v-2.245c0.529-0.42,1.164-0.756,1.914-1.01
				c0.75-0.252,1.561-0.381,2.438-0.381c1.311,0,2.373,0.336,3.186,1.005c0.812,0.672,1.219,1.629,1.219,2.876v5.57
				c0,0.15,0.004,0.296,0.004,0.438c0.004,0.143,0.012,0.284,0.027,0.428l0.855,0.118v1.348H142.951z M139.559,52.008
				c0.699,0,1.338-0.165,1.914-0.501c0.58-0.334,0.994-0.738,1.24-1.208v-1.9h-2.24c-0.865,0-1.547,0.197-2.051,0.595
				c-0.504,0.4-0.752,0.886-0.752,1.456c0,0.506,0.156,0.894,0.469,1.162C138.451,51.874,138.926,52.008,139.559,52.008z"/>
		</g>
	</g>
	<g>
		<g>
			<g>
				<path fill="#231F20" d="M37.804,45.239V30.09v-7.359H21.832v6.287l5.574,1.072v29.047c0,2.597-0.673,4.637-2.015,6.125
					c-1.348,1.491-2.986,2.233-4.916,2.233c-2.215,0-3.977-0.624-5.285-1.872c-1.31-1.254-1.965-3.249-1.965-5.986H3.077
					l-0.07,0.213c-0.12,5.145,1.403,9.038,4.573,11.684c3.167,2.645,7.464,3.966,12.895,3.966c2.607,0,4.973-0.408,7.109-1.208
					L37.804,45.239z"/>
				<circle fill="#1D1D1B" cx="78.103" cy="10.41" r="4.91"/>
				<path fill="#4D63E8" d="M60.716,6.938c-1.923,1.919-1.923,5.025,0,6.945c1.914,1.917,5.025,1.917,6.94,0
					c1.918-1.92,1.918-5.026,0-6.945C65.741,5.021,62.63,5.021,60.716,6.938z"/>
				<circle fill="#4D63E8" cx="78.103" cy="24.265" r="4.911"/>
				<path fill="#4D63E8" d="M79.636,67.971L63.917,22.739H53.275l-7.524,21.39l-8.343,23.842l-0.048,0.006l-2.381,6.782h16.435
					v-6.252l-3.609-0.644l2.287-7.144h16.862l2.288,7.144l-3.61,0.644v6.252h17.722v-6.252L79.636,67.971z M52.557,53.037
					l5.856-18.328h0.217l5.858,18.328H52.557z"/>
			</g>
		</g>
	</g>
</g>
</svg>
